<svg xmlns="http://www.w3.org/2000/svg" viewBox="0 0 1000 1000"><path d="M745 72.26v60.3H465.96l-294.92 1.9C88.36 145 22.53 210.82 12 293.5c-1.9 16.08-2.87 373-.96 373 .57 0 28.13-20.3 61.24-45.17l60.3-45.17V469.38c0-99.7.2-107.56 3.83-121.33 11.1-43.83 45.36-78.08 89.18-89.18 14.35-3.64 22.2-3.83 267.17-3.83H745v60.3c0 33.1.38 60.3.96 60.3 2.1 0 241.14-180.28 241.14-181.8S748.05 11.98 745.95 11.98c-.58 0-.96 27.18-.96 60.28zm182.37 306.6l-59.9 44.97v106.8c0 99.7-.2 107.56-3.83 121.34-11.1 43.83-45.36 78.08-89.18 89.18-14.35 3.64-22.2 3.83-267.17 3.83H255.05v-60.3c0-33.1-.38-60.3-.96-60.3-2.1 0-241.14 180.28-241.14 181.8S252 988 254.1 988c.57 0 .96-27.18.96-60.3v-60.3H534.1L829 865.5c82.48-10.53 148.5-76.55 159.04-159.04 2.3-18.56 2.68-373 .57-372.8-.95.02-28.5 20.3-61.24 45.2z"/></svg>